<svg id="Capa_1" enable-background="new 0 0 510 510" height="512" viewBox="0 0 510 510" width="512" xmlns="http://www.w3.org/2000/svg"><g><path d="m0 150v330h255l10-165-10-165-127.5-10z" fill="#f9f9f9"/><path d="m510 150-127.5-10-127.5 10v330h255c0-18.326 0-311.674 0-330z" fill="#e2dff4"/><path d="m0 60v90h255l10-45-10-45c-7.193 0-247.807 0-255 0z" fill="#f4764e"/><path d="m510 60c-7.193 0-247.807 0-255 0v90h255c0-10.889 0-79.039 0-90z" fill="#ff435b"/><path d="m360 120h60c0-10.889 0-79.039 0-90-7.259 0-52.693 0-60 0z" fill="#435184"/><path d="m90 30h60v90h-60z" fill="#5c6c93"/><path d="m240 210v30c-10.492 0-19.508 0-30 0 0-10.492 0-19.508 0-30-10.492 0-19.508 0-30 0v30c-10.492 0-19.508 0-30 0 0-10.492 0-19.508 0-30-10.492 0-19.508 0-30 0v30c-14.981 0-30.019 0-45 0v30h45v30c-14.981 0-30.019 0-45 0v30h45v30c-14.981 0-30.019 0-45 0v30h45v30h30c0-10.492 0-19.508 0-30h30v30h30c0-10.492 0-19.508 0-30h30v30h15l10-105-10-105c-5.246 0-9.754 0-15 0zm-60 150c-10.492 0-19.508 0-30 0 0-10.492 0-19.508 0-30h30zm0-60c-10.492 0-19.508 0-30 0 0-10.492 0-19.508 0-30h30zm60 60c-10.492 0-19.508 0-30 0 0-10.492 0-19.508 0-30h30zm0-60c-10.492 0-19.508 0-30 0 0-10.492 0-19.508 0-30h30z" fill="#ffe278"/><path d="m270 390h30v30h30c0-10.492 0-19.508 0-30h30v30h30c0-10.492 0-19.508 0-30h45c0-10.492 0-19.508 0-30-14.981 0-30.019 0-45 0 0-10.492 0-19.508 0-30h45c0-10.492 0-19.508 0-30-14.981 0-30.019 0-45 0 0-10.492 0-19.508 0-30h45c0-10.492 0-19.508 0-30-14.981 0-30.019 0-45 0 0-10.492 0-19.508 0-30-10.492 0-19.508 0-30 0v30c-10.492 0-19.508 0-30 0 0-10.492 0-19.508 0-30-10.492 0-19.508 0-30 0v30c-10.492 0-19.508 0-30 0 0-10.492 0-19.508 0-30-5.246 0-9.754 0-15 0v210h15c0-10.492 0-19.508 0-30zm60-120h30v30c-10.492 0-19.508 0-30 0 0-10.492 0-19.508 0-30zm0 60h30v30c-10.492 0-19.508 0-30 0 0-10.492 0-19.508 0-30zm-60-60h30v30c-10.492 0-19.508 0-30 0 0-10.492 0-19.508 0-30zm0 60h30v30c-10.492 0-19.508 0-30 0 0-10.492 0-19.508 0-30z" fill="#ffc178"/></g></svg>