<svg id="Capa_1" enable-background="new 0 0 512 512" height="512" viewBox="0 0 512 512" width="512" xmlns="http://www.w3.org/2000/svg"><g><path d="m360 256c0-57.438-46.562-104-104-104-25.89 0-49.57 9.46-67.772 25.112-22.181 19.073-30.228 47.34-30.228 78.888 0 57.438 40.562 99.333 98 99.333 31.56 0 59.837-9.391 78.91-31.587 15.639-18.199 25.09-41.869 25.09-67.746z" fill="#e5646e"/><path d="m267.143 348.857c-57.438 0-104-46.562-104-104 0-25.882 9.442-49.545 25.085-67.745-22.191 19.073-36.228 47.332-36.228 78.888 0 57.438 46.562 104 104 104 31.556 0 59.837-14.064 78.91-36.254-18.2 15.644-41.885 25.111-67.767 25.111z" fill="#db4655"/><g fill="#fff"><path d="m256 272c-19.074 0-35.596 11.581-43.89 28.548-2.577 5.272 1.271 11.452 7.139 11.452h73.502c5.868 0 9.716-6.18 7.139-11.452-8.294-16.966-24.816-28.548-43.89-28.548z"/><path d="m216 256c-4.422 0-8-3.578-8-8v-16c0-4.422 3.578-8 8-8s8 3.578 8 8v16c0 4.422-3.578 8-8 8z"/><path d="m296 256c-4.422 0-8-3.578-8-8v-16c0-4.422 3.578-8 8-8s8 3.578 8 8v16c0 4.422-3.578 8-8 8z"/></g><path d="m390.984 333.672c-1.234 0-2.492-.289-3.672-.898-3.922-2.023-5.453-6.852-3.422-10.781 10.688-20.665 16.11-42.868 16.11-65.993s-5.422-45.328-16.109-65.992c-2.031-3.93-.5-8.758 3.422-10.781 3.945-2.047 8.75-.492 10.781 3.422 11.883 22.961 17.906 47.64 17.906 73.351s-6.023 50.391-17.906 73.352c-1.422 2.742-4.211 4.32-7.11 4.32z" fill="#ff8086"/><path d="m433.703 355.719c-1.234 0-2.492-.289-3.664-.891-3.93-2.031-5.461-6.859-3.438-10.781 14.204-27.453 21.399-57.078 21.399-88.047s-7.195-60.594-21.398-88.047c-2.023-3.922-.492-8.75 3.438-10.781 3.922-2.016 8.75-.484 10.781 3.438 15.382 29.742 23.179 61.836 23.179 95.39s-7.797 65.648-23.18 95.391c-1.422 2.75-4.218 4.328-7.117 4.328z" fill="#ff9a9f"/><path d="m476.352 377.735c-1.234 0-2.492-.289-3.664-.891-3.93-2.031-5.461-6.859-3.438-10.781 17.75-34.321 26.75-71.352 26.75-110.063s-9-75.742-26.75-110.063c-2.023-3.922-.492-8.75 3.438-10.781 3.922-2.023 8.75-.484 10.781 3.438 18.929 36.609 28.531 76.109 28.531 117.406s-9.602 80.797-28.531 117.406c-1.422 2.75-4.219 4.329-7.117 4.329z" fill="#ffd8da"/><path d="m121.016 333.672c-2.898 0-5.688-1.578-7.109-4.32-11.884-22.961-17.907-47.641-17.907-73.352s6.023-50.391 17.906-73.352c2.031-3.906 6.828-5.461 10.781-3.422 3.922 2.023 5.453 6.852 3.422 10.781-10.687 20.665-16.109 42.868-16.109 65.993s5.422 45.328 16.109 65.992c2.031 3.93.5 8.758-3.422 10.781-1.179.61-2.437.899-3.671.899z" fill="#ff8086"/><path d="m78.297 355.719c-2.898 0-5.695-1.578-7.117-4.328-15.383-29.742-23.18-61.836-23.18-95.391s7.797-65.648 23.18-95.391c2.023-3.922 6.859-5.445 10.781-3.438 3.93 2.031 5.461 6.859 3.438 10.781-14.204 27.454-21.399 57.079-21.399 88.048s7.195 60.594 21.398 88.047c2.023 3.922.492 8.75-3.438 10.781-1.171.602-2.429.891-3.663.891z" fill="#ff9a9f"/><path d="m35.648 377.735c-2.898 0-5.695-1.578-7.117-4.328-18.929-36.61-28.531-76.11-28.531-117.407s9.602-80.797 28.531-117.406c2.023-3.922 6.859-5.461 10.781-3.438 3.93 2.031 5.461 6.859 3.438 10.781-17.75 34.321-26.75 71.352-26.75 110.063s9 75.742 26.75 110.062c2.023 3.922.492 8.75-3.438 10.781-1.171.603-2.429.892-3.664.892z" fill="#ffd8da"/><path d="m231.992 248c-1.203 0-2.422-.273-3.57-.844l-32-16c-3.953-1.977-5.555-6.781-3.578-10.734 1.984-3.953 6.773-5.539 10.734-3.578l32 16c3.953 1.977 5.555 6.781 3.578 10.734-1.406 2.805-4.226 4.422-7.164 4.422z" fill="#bd4150"/><path d="m280.008 248c-2.938 0-5.758-1.617-7.164-4.422-1.977-3.953-.375-8.758 3.578-10.734l32-16c3.945-1.961 8.758-.375 10.734 3.578s.375 8.758-3.578 10.734l-32 16c-1.148.571-2.367.844-3.57.844z" fill="#bd4150"/></g></svg>